<?xml version="1.0" encoding="UTF-8"?><svg id="Character" xmlns="http://www.w3.org/2000/svg" viewBox="0 0 630 900"><defs><style>.cls-1{stroke:#000;stroke-miterlimit:10;}</style></defs><path class="cls-1" d="m315,489.76c-9.55,1.07-19.87,4.82-31.1,11.66-7.13,2.29-8.34-1.52-5.55-9.44,11.66-82.75-19.99-112.74-43.87-83.86-18.33,23.33-10.1,136.12,19.99,171.61,6.66,12.77,44.98,15.55,48.32,19.99,3.33,18.88-5.55,18.33-27.77,17.77-16.11,0-55.54,46.09-69.98,76.64-2.22,10,4.95,18.56,21.1,8.33,15.86-15.13,32.22-34.61,48.87-56.65l1.11,39.99c-1.54,2.66-2.71,5.71-2.78,10-20.92,21.58-18.33,50.54-6.66,89.97,11.11,23.33,29.37,21.97,33.88-.56l6.66-47.21c1.88-2.14,4.59-2.22,7.78-1.11"/><path class="cls-1" d="m315,489.76c9.55,1.07,19.87,4.72,31.1,11.56,7.13,2.29,8.34-1.52,5.55-9.44-11.66-82.75,19.99-112.74,43.87-83.86,18.33,23.33,10.1,136.12-19.99,171.61-6.66,12.77-44.98,15.55-48.32,19.99-3.33,18.88,5.55,18.33,27.77,17.77,16.11,0,55.54,46.09,69.98,76.64,2.22,10-4.95,18.56-21.1,8.33-15.86-15.13-32.22-34.61-48.87-56.65l-1.11,39.99c1.54,2.66,2.71,5.71,2.78,10,20.92,21.58,18.33,50.54,6.66,89.97-11.11,23.33-29.37,21.97-33.88-.56l-6.66-47.21c-1.88-2.14-4.59-2.22-7.78-1.11"/></svg>