<?xml version="1.0" encoding="UTF-8"?><svg id="Character" xmlns="http://www.w3.org/2000/svg" viewBox="0 0 494 900"><defs><style>.cls-1{stroke:#fff;stroke-miterlimit:10;}</style></defs><path class="cls-1" d="m247,749.71c6.99-2.43,12.92-2.26,17.03,2.43l14.6,103.43c9.87,49.36,49.89,52.32,74.22,1.22,25.55-86.39,31.23-149.83-14.6-197.12-.14-9.38-2.72-16.08-6.08-21.9l2.43-87.61c36.48,48.29,72.32,90.95,107.08,124.11,35.4,22.41,51.1,3.65,46.24-18.25-31.64-66.92-118.03-167.91-153.31-167.91-48.67,1.22-68.14,2.43-60.84-38.94,7.3-9.73,91.26-15.82,105.86-43.8,65.93-77.74,83.96-324.88,43.8-375.98-52.32-63.27-121.68,2.43-96.12,183.73,6.11,17.36,3.46,25.7-12.17,20.69-24.59-14.98-47.21-22.96-68.13-25.32-24.11,2.06-46.73,10.98-68.14,25.55-15.62,5.01-18.28-3.32-12.17-20.69C192.25,32.05,122.89-33.66,70.57,29.62c-40.15,51.1-22.13,298.24,43.8,375.98,14.6,27.99,98.56,34.07,105.86,43.8,7.3,41.37-12.17,40.15-60.84,38.94-35.29,0-121.68,100.99-153.31,167.91-4.87,21.9,10.84,40.66,46.24,18.25,34.76-33.16,70.6-75.82,107.08-124.11l2.43,87.61c-3.37,5.82-5.94,12.52-6.08,21.9-45.83,47.28-40.15,110.73-14.6,197.12,24.34,51.1,64.35,48.14,74.22-1.22l14.6-103.43c5.03-4.18,10.64-5.39,17.03-2.67Z"/></svg>