<?xml version="1.0" encoding="UTF-8"?><svg id="NEW_logo" xmlns="http://www.w3.org/2000/svg" viewBox="0 0 50 50"><defs><style>.cls-1{fill:#ec9d60;}.cls-1,.cls-2,.cls-3,.cls-4,.cls-5{stroke:#000;stroke-miterlimit:10;stroke-width:.4px;}.cls-2{fill:#49b0d5;}.cls-3{fill:#dfa4cf;}.cls-4{fill:#f0cb66;}.cls-5{fill:#8ace55;}</style></defs><path class="cls-2" d="m25,23.27c2.12.21,4.41.93,6.89,2.28,1.58.45,1.85-.3,1.23-1.87-2.59-16.35,4.43-22.28,9.73-16.57,4.06,4.61,2.24,26.9-4.43,33.91-1.48,2.52-9.97,3.07-10.71,3.95l-5.42.02c-.74-.88-9.23-1.43-10.71-3.95C4.91,34.04,3.08,11.75,7.15,7.14c5.29-5.71,12.31.22,9.73,16.57-.62,1.57-.35,2.32,1.23,1.87,2.49-1.35,4.78-2.09,6.89-2.3"/><ellipse class="cls-3" cx="30.99" cy="32.31" rx="2.99" ry="4.05"/><ellipse class="cls-1" cx="19.46" cy="32.11" rx="2.99" ry="4.05"/><path class="cls-5" d="m22.01,29.64c-5.99-1.58-5.76,6.32,0,4.94-3.8,0-4.03-4.94,0-4.94Z"/><path class="cls-5" d="m27.95,29.57c5.99-1.58,5.76,6.32,0,4.94,3.8,0,4.03-4.94,0-4.94Z"/><path class="cls-4" d="m18.02,38.34c5.22,4.98,10.31,4.57,15.3,0,0,0-15.3.07-15.3,0Z"/></svg>