<?xml version="1.0" encoding="UTF-8"?><svg id="Logo" xmlns="http://www.w3.org/2000/svg" viewBox="0 0 630 900"><defs><style>.cls-1{fill:#f0cb66;}.cls-1,.cls-2,.cls-3,.cls-4,.cls-5{stroke:#000;stroke-miterlimit:10;}.cls-2{fill:#ec9d60;}.cls-3{fill:#dfa4cf;}.cls-4{fill:#49b0d5;}.cls-5{fill:#8ace55;}</style></defs><path class="cls-4" d="m315,339.76c9.55,1.07,19.87,4.72,31.1,11.56,7.13,2.29,8.34-1.52,5.55-9.44-11.66-82.75,19.99-112.74,43.87-83.86,18.33,23.33,10.1,136.12-19.99,171.61-6.66,12.77-44.98,15.55-48.32,19.99l-24.43.11c-3.33-4.44-41.65-7.22-48.32-19.99-30.09-35.48-38.32-148.28-19.99-171.61,23.88-28.88,55.54,1.11,43.87,83.86-2.79,7.92-1.58,11.73,5.55,9.44,11.23-6.84,21.55-10.59,31.1-11.66"/><ellipse class="cls-2" cx="290" cy="384.5" rx="13.5" ry="20.5"/><ellipse class="cls-3" cx="342" cy="385.5" rx="13.5" ry="20.5"/><path class="cls-5" d="m301.5,372c-27-8-26,32,0,25-17.16,0-18.18-24.99,0-25Z"/><path class="cls-5" d="m328.3,371.66c27-8,26,32,0,25,17.16,0,18.18-24.99,0-25Z"/><path class="cls-1" d="m283.5,416c23.54,25.2,46.5,23.13,69,0,0,0-69,.35-69,0Z"/></svg>