<?xml version="1.0" encoding="UTF-8"?><svg id="Logo" xmlns="http://www.w3.org/2000/svg" viewBox="0 0 630 900"><defs><style>.cls-1{fill:#f0cb66;}.cls-1,.cls-2,.cls-3,.cls-4,.cls-5{stroke:#000;stroke-miterlimit:10;}.cls-2{fill:#ec9d60;}.cls-3{fill:#dfa4cf;}.cls-4{fill:#49b0d5;}.cls-5{fill:#8ace55;}</style></defs><path class="cls-4" d="m315,425.26c26.99,3.04,56.18,13.34,87.91,32.67,20.16,6.47,23.59-4.29,15.7-26.69-32.97-233.92,56.52-318.7,124.03-237.06,51.81,65.94,28.55,384.81-56.52,485.11-18.84,36.11-127.17,43.96-136.58,56.52l-69.07.3c-9.42-12.56-117.75-20.41-136.58-56.52-85.07-100.31-108.33-419.17-56.52-485.11,67.51-81.64,156.99,3.14,124.03,237.06-7.89,22.4-4.46,33.15,15.7,26.69,31.73-19.33,60.92-29.93,87.92-32.97"/><ellipse class="cls-2" cx="244.33" cy="551.73" rx="38.16" ry="57.95"/><ellipse class="cls-3" cx="391.33" cy="554.55" rx="38.16" ry="57.95"/><path class="cls-5" d="m276.84,516.39c-76.33-22.62-73.5,90.46,0,70.67-48.5.02-51.4-70.65,0-70.67Z"/><path class="cls-5" d="m352.61,515.42c76.33-22.62,73.5,90.46,0,70.67,48.5.02,51.4-70.65,0-70.67Z"/><path class="cls-1" d="m225.95,640.77c66.56,71.24,131.45,65.39,195.06,0,0,0-195.06.99-195.06,0Z"/></svg>